<svg width="128" height="128" viewBox="0 0 128 128" fill="none" xmlns="http://www.w3.org/2000/svg">
  <defs>
    <linearGradient id="bookGradient" x1="0" y1="0" x2="128" y2="128">
      <stop offset="0%" stop-color="#2563EB"></stop>
      <stop offset="100%" stop-color="#1E3A8A"></stop>
    </linearGradient>
  </defs>

  <!-- Graduation Cap -->
  <path d="M64 12L106 30L64 48L22 30L64 12Z" fill="#1E3A8A"></path>

  <path d="M36 38V58C36 66 48 72 64 72C80 72 92 66 92 58V38L64 50L36 38Z" fill="#2563EB"></path>

  <circle cx="30" cy="46" r="4" fill="#1E3A8A"></circle>
  <path d="M30 46V64" stroke="#1E3A8A" stroke-width="2"></path>
  <path d="M26 68C26 63 34 63 34 68V72H26V68Z" fill="#1E3A8A"></path>

  <!-- Books -->
  <rect x="22" y="78" width="84" height="12" rx="6" fill="url(#bookGradient)"></rect>
  <rect x="18" y="92" width="84" height="12" rx="6" fill="#60A5FA"></rect>
  <rect x="22" y="106" width="84" height="12" rx="6" fill="#1E40AF"></rect>

  <!-- Bookmarks -->
  <path d="M82 81V91L88 87L94 91V81" fill="white"></path>
  <path d="M82 95V105L88 101L94 105V95" fill="white"></path>
</svg>